<svg xmlns="http://www.w3.org/2000/svg" viewBox="0 0 402 402"><g><title>Layer 1</title><rect stroke-width="0" id="svg_5" height="100" width="100" stroke="#000" fill="none"></rect><rect stroke-width="0" id="svg_6" height="100" width="100" x="150" stroke="#000" fill="none"></rect><rect stroke-width="0" id="svg_7" height="100" width="100" x="300" stroke="#000" fill="none"></rect><rect stroke-width="0" x="0" y="150" id="svg_8" height="100" width="100" stroke="#000" fill="none"></rect><rect stroke-width="0" x="150" y="150" id="svg_9" height="100" width="100" stroke="#000" fill="none"></rect><rect stroke-width="0" x="300" y="150" id="svg_10" height="100" width="100" stroke="#000" fill="none"></rect><rect stroke-width="0" x="300" y="300" id="svg_11" height="100" width="100" stroke="#000" fill="none"></rect><rect stroke-width="0" x="150" y="300" id="svg_12" height="100" width="100" stroke="#000" fill="none"></rect><rect stroke-width="0" x="0" y="300" id="svg_13" height="100" width="100" stroke="#000" fill="none"></rect><rect id="svg_16" height="320" width="50" y="40" x="100" stroke-width="4" stroke="#000000" fill="#000000"></rect><rect id="svg_17" height="320" width="50" y="40" x="250" stroke-width="4" stroke="#000000" fill="#000000"></rect><rect id="svg_19" height="50" width="320" y="100" x="40" stroke-width="4" stroke="#000000" fill="#000000"></rect><rect id="svg_20" height="50" width="320" y="250" x="40" stroke-width="4" stroke="#000000" fill="#000000"></rect><rect id="svg_21" height="38" width="42" y="0" x="104" stroke-width="0" stroke="#000000" fill="#fff"></rect><rect id="svg_24" height="38" width="42" y="0" x="254" stroke-width="0" stroke="#000000" fill="#fff"></rect><rect id="svg_25" height="42" width="42" y="362" x="254" stroke-width="0" stroke="#000000" fill="#fff"></rect><rect id="svg_26" height="42" width="42" y="362" x="104" stroke-width="0" stroke="#000000" fill="#fff"></rect><rect id="svg_27" height="42" width="42" y="254" x="0" stroke-width="0" stroke="#000000" fill="#fff"></rect><rect id="svg_28" height="42" width="42" y="104" x="0" stroke-width="0" stroke="#000000" fill="#fff"></rect><rect id="svg_29" height="42" width="42" y="104" x="360" stroke-width="0" stroke="#000000" fill="#fff"></rect><rect id="svg_30" height="42" width="42" y="254" x="360" stroke-width="0" stroke="#000000" fill="#fff"></rect></g></svg>
