<svg xmlns="http://www.w3.org/2000/svg" viewBox="0 0 820.000000 150.000000" preserveAspectRatio="xMidYMid meet" style="background-image: none;"><g transform="translate(0.000000,170.000000) scale(0.100000,-0.100000)" fill="#000000" stroke="none"><path d="M220 1020 l0 -580 140 0 140 0 0 235 0 235 228 -2 227 -3 3 -232 2 -233 140 0 140 0 0 580 0 580 -140 0 -140 0 0 -230 0 -230 -230 0 -230 0 0 230 0 230 -140 0 -140 0 0 -580z"></path><path d="M2980 1020 l0 -580 140 0 140 0 0 267 c0 245 2 270 20 308 25 52 68 77 131 77 54 0 89 -18 116 -59 16 -24 18 -60 21 -310 l3 -283 140 0 140 0 -3 323 c-5 364 -7 379 -80 462 -58 66 -106 88 -206 93 -127 7 -214 -36 -265 -132 l-22 -41 -3 228 -2 227 -135 0 -135 0 0 -580z" transform="translate(120 0)"></path><path d="M1529 1298 c-82 -29 -132 -66 -170 -126 -30 -47 -53 -112 -43 -121 2 -3 60 -7 128 -9 117 -4 124 -3 130 16 16 51 97 81 167 62 32 -9 44 -18 55 -46 31 -75 0 -94 -186 -119 -240 -31 -330 -107 -330 -279 0 -96 46 -175 127 -217 42 -21 61 -24 153 -24 90 0 112 3 153 24 28 14 61 41 78 64 l29 40 0 -61 0 -62 136 0 136 0 -4 327 c-3 321 -4 329 -27 376 -30 61 -98 121 -170 148 -43 17 -83 23 -176 26 -106 3 -128 1 -186 -19z m281 -527 c0 -100 -62 -161 -163 -161 -40 0 -54 5 -78 29 -32 33 -36 58 -14 100 17 34 45 46 149 66 43 8 81 17 84 20 15 15 22 -1 22 -54z" transform="translate(40 0)"></path><path d="M2370 1306 c-115 -33 -191 -98 -217 -185 -37 -130 24 -252 152 -301 17 -7 93 -25 169 -41 112 -22 145 -33 164 -53 52 -51 0 -106 -100 -106 -61 0 -112 26 -130 65 -11 25 -12 25 -150 25 l-140 0 7 -33 c11 -52 56 -126 96 -158 122 -96 352 -122 521 -59 181 68 256 269 147 394 -50 56 -109 81 -281 116 -157 32 -188 47 -188 89 0 44 31 65 103 69 72 4 122 -20 133 -63 6 -24 8 -25 98 -25 50 0 108 3 128 6 35 6 37 8 31 38 -16 87 -72 151 -173 199 -61 30 -73 32 -195 34 -85 1 -146 -2 -175 -11z" transform="translate(80 0)"></path><path d="M4110 1305 c-146 -41 -220 -130 -220 -264 0 -93 44 -162 130 -206 25 -13 110 -37 189 -54 162 -34 191 -48 191 -90 0 -45 -31 -65 -108 -69 -76 -4 -125 18 -142 63 -9 25 -10 25 -145 25 -133 0 -135 0 -135 -22 0 -42 47 -123 95 -166 145 -128 464 -129 624 -3 117 93 127 283 19 364 -51 38 -100 55 -256 87 -79 16 -151 35 -159 41 -65 54 -19 119 84 119 56 0 108 -27 125 -65 11 -24 15 -25 103 -25 125 0 155 7 155 34 0 38 -50 124 -93 161 -68 58 -133 78 -277 81 -90 3 -140 0 -180 -11z" transform="translate(160 0)"></path><path d="M6245 1307 c-125 -42 -200 -110 -230 -210 l-13 -45 36 -6 c20 -3 79 -6 130 -6 87 0 93 1 101 23 12 31 29 43 79 56 80 22 152 -16 152 -80 0 -51 -24 -61 -195 -83 -115 -15 -206 -43 -249 -77 -108 -85 -114 -283 -12 -377 60 -56 126 -75 235 -70 101 5 137 21 199 86 l42 45 0 -62 0 -61 131 0 130 0 -3 328 -3 327 -27 55 c-32 65 -79 104 -162 139 -51 21 -81 25 -181 28 -81 2 -133 -2 -160 -10z m253 -547 c-3 -56 -8 -74 -28 -96 -33 -35 -79 -54 -134 -54 -127 0 -138 147 -13 178 56 14 160 39 171 41 4 0 6 -30 4 -69z" transform="translate(240 0)"></path><path d="M7280 1307 c-33 -11 -113 -82 -137 -122 -10 -17 -12 -8 -12 53 l-1 72 -140 0 -140 0 0 -600 0 -600 140 0 140 0 0 238 c0 236 0 237 19 206 29 -47 97 -100 147 -114 65 -19 168 -8 230 23 137 69 216 252 200 462 -13 182 -81 302 -206 367 -52 27 -181 35 -240 15z m42 -207 c44 -13 93 -66 107 -117 6 -21 11 -68 11 -104 0 -160 -62 -239 -180 -229 -80 7 -133 95 -133 220 -1 130 33 198 108 225 49 17 43 17 87 5z" transform="translate(280 0)"></path><path d="M4711 1123 c27 -104 77 -298 112 -433 l64 -245 150 -3 150 -3 63 238 c34 131 66 247 70 258 10 26 7 36 83 -250 l64 -240 150 -3 149 -3 109 418 c60 230 110 426 113 436 4 16 -7 17 -135 17 l-140 0 -53 -262 c-29 -145 -56 -269 -60 -276 -7 -13 -18 30 -96 370 l-39 168 -137 0 -136 0 -25 -107 c-14 -60 -42 -183 -63 -276 -21 -92 -41 -164 -44 -160 -4 5 -31 121 -59 258 -29 138 -54 258 -57 268 -5 15 -21 17 -144 17 l-138 0 49 -187z" transform="translate(200 0)"></path></g></svg>
